<svg width="86" height="86" viewBox="0 0 86 86" fill="none" xmlns="http://www.w3.org/2000/svg">
<path d="M77.9729 57.0467L55.0396 15.7667C51.9579 10.2125 47.6937 7.16667 42.9995 7.16667C38.3054 7.16667 34.0412 10.2125 30.9596 15.7667L8.02622 57.0467C5.12372 62.3142 4.80122 67.3667 7.13039 71.3442C9.45955 75.3217 14.0462 77.5075 20.0662 77.5075H65.9329C71.9529 77.5075 76.5396 75.3217 78.8687 71.3442C81.1979 67.3667 80.8754 62.2783 77.9729 57.0467ZM40.312 32.25C40.312 30.7808 41.5304 29.5625 42.9995 29.5625C44.4687 29.5625 45.687 30.7808 45.687 32.25V50.1667C45.687 51.6358 44.4687 52.8542 42.9995 52.8542C41.5304 52.8542 40.312 51.6358 40.312 50.1667V32.25ZM45.5437 63.4608C45.3646 63.6042 45.1854 63.7475 45.0062 63.8908C44.7912 64.0342 44.5762 64.1417 44.3612 64.2133C44.1462 64.3208 43.9312 64.3925 43.6804 64.4283C43.4654 64.4642 43.2146 64.5 42.9995 64.5C42.7845 64.5 42.5337 64.4642 42.2829 64.4283C42.0679 64.3925 41.8529 64.3208 41.6379 64.2133C41.4229 64.1417 41.2079 64.0342 40.9929 63.8908C40.8137 63.7475 40.6346 63.6042 40.4554 63.4608C39.8104 62.78 39.4162 61.8483 39.4162 60.9167C39.4162 59.985 39.8104 59.0533 40.4554 58.3725C40.6346 58.2292 40.8137 58.0858 40.9929 57.9425C41.2079 57.7992 41.4229 57.6917 41.6379 57.62C41.8529 57.5125 42.0679 57.4408 42.2829 57.405C42.7487 57.2975 43.2504 57.2975 43.6804 57.405C43.9312 57.4408 44.1462 57.5125 44.3612 57.62C44.5762 57.6917 44.7912 57.7992 45.0062 57.9425C45.1854 58.0858 45.3646 58.2292 45.5437 58.3725C46.1887 59.0533 46.5829 59.985 46.5829 60.9167C46.5829 61.8483 46.1887 62.78 45.5437 63.4608Z" fill="#F46161"/>
</svg>
